Coordinates
nRows=12
nColumns=24

# SIMM Motion File Header:
name Coordinates
datacolumns 24
datarows 12
otherdata 1
range 1.15400000000000010000 1.16500000000000000000
endheader
time	pelvis_tx	pelvis_ty	pelvis_tz	pelvis_tilt	pelvis_list	pelvis_rotation	hip_flexion_r	hip_adduction_r	hip_rotation_r	knee_angle_r	ankle_angle_r	subtalar_angle_r	mtp_angle_r	hip_flexion_l	hip_adduction_l	hip_rotation_l	knee_angle_l	ankle_angle_l	subtalar_angle_l	mtp_angle_l	lumbar_extension	lumbar_bending	lumbar_rotation
      1.15400000000000010000	     -0.00994161736744647580	      0.86384253510452369000	     -0.27557940593588376000	     20.24269996496750000000	     -3.96305418374196710000	      9.58281471218992920000	     -6.45484506420799510000	      9.86201700281554850000	      4.14434615261479070000	    -21.78759420747335100000	     10.35477946872658500000	     -0.00000000000001228968	      0.00000000000020641201	     -6.02238734911645590000	    -11.00196126573178500000	      0.02196692422612682100	    -67.09189408503634400000	     -3.77711821792802290000	      0.00000000000045305295	     -0.00000000000034805767	    -27.35430532954800500000	      9.87401952809896240000	     -4.07869784300597350000
      1.15500000000000000000	     -0.00833379574252777170	      0.86431764359875474000	     -0.27553683064948781000	     20.25498141230784600000	     -3.92554622908985480000	      9.52120054212650930000	     -6.66606111614291400000	      9.82412666552215440000	      4.21089060739431530000	    -21.65756098107387800000	     10.38303253160102800000	     -0.00000000000001129985	      0.00000000000020560250	     -5.89612652585948370000	    -10.93534876121900700000	     -0.01545229566642346800	    -67.00594473650053800000	     -3.55285972393397700000	      0.00000000000045253426	     -0.00000000000034670104	    -27.37712879840030000000	      9.80773451226955120000	     -4.01310471790172760000
      1.15600000000000010000	     -0.00672597411760871100	      0.86479275209298589000	     -0.27549425536309180000	     20.26726285964819100000	     -3.88803827443773460000	      9.45958637206307710000	     -6.87727716807787900000	      9.78623632822875320000	      4.27743506217385330000	    -21.52752775467437400000	     10.41128559447547600000	     -0.00000000000001031002	      0.00000000000020479299	     -5.76986570260248400000	    -10.86873625670621600000	     -0.05287151555898207000	    -66.91999538796470400000	     -3.32860122993988170000	      0.00000000000045201557	     -0.00000000000034534442	    -27.39995226725260500000	      9.74144949644012570000	     -3.94751159279746840000
      1.15700000000000000000	     -0.00511970833568086220	      0.86526810873328308000	     -0.27545177284857031000	     20.27945910314402100000	     -3.84963093086137450000	      9.39527001241733830000	     -7.08951647314235790000	      9.74514606171082500000	      4.34439068557119070000	    -21.39426285466631200000	     10.43648980199240500000	     -0.00000000000000922654	      0.00000000000020384699	     -5.64711997669104450000	    -10.80071054230541900000	     -0.09450967650717841100	    -66.82433262276084900000	     -3.11373398933191760000	      0.00000000000045143350	     -0.00000000000034367982	    -27.42288282259340400000	      9.67343960947438570000	     -3.88072895397289660000
      1.15800000000000010000	     -0.00351344255375265730	      0.86574346537358049000	     -0.27540929033404882000	     20.29165534663985300000	     -3.81122358728500550000	      9.33095365277158710000	     -7.30175577820688380000	      9.70405579519288610000	      4.41134630896854230000	    -21.26099795465822200000	     10.46169400950933900000	     -0.00000000000000814305	      0.00000000000020290098	     -5.52437425077957920000	    -10.73268482790460600000	     -0.13614783745538492000	    -66.72866985755696600000	     -2.89886674872390770000	      0.00000000000045085142	     -0.00000000000034201523	    -27.44581337793420800000	      9.60542972250862980000	     -3.81394631514830970000
      1.15900000000000000000	     -0.00190801404797103420	      0.86621881588098015000	     -0.27536681373260807000	     20.30383131880746100000	     -3.77252117257572460000	      9.26545217278050260000	     -7.51435276017904300000	      9.66156698711929000000	      4.47801122449321380000	    -21.12627086843931300000	     10.48215058470009200000	     -0.00000000000000702578	      0.00000000000020192120	     -5.40319576712472220000	    -10.66420022728727100000	     -0.17973060208157438000	    -66.62870132557667100000	     -2.68834317711709180000	      0.00000000000045030888	     -0.00000000000034032406	    -27.46880814879247300000	      9.53676170897598570000	     -3.74660913724521680000
      1.16000000000000010000	     -0.00030342281833528313	      0.86669416025548229000	     -0.27532434304424808000	     20.31598701964684800000	     -3.73352368673351400000	      9.19876557244405110000	     -7.72730741905893040000	      9.61767963749000820000	      4.54438543214523080000	    -20.99008159600951400000	     10.49785952756465300000	     -0.00000000000000587474	      0.00000000000020090766	     -5.28358452572642710000	    -10.59525674045338500000	     -0.22525797038577472000	    -66.52442702681992200000	     -2.48216327451139480000	      0.00000000000044980588	     -0.00000000000033860632	    -27.49186713516821000000	      9.46743556887641980000	     -3.67871742026358550000
      1.16100000000000000000	      0.00130026136618336970	      0.86716949349342665000	     -0.27528173836004100000	     20.32820834841925300000	     -3.69412752680014830000	      9.13077983653062650000	     -7.94063207920009970000	      9.57229736065733580000	      4.61091074008831110000	    -20.85262105739209600000	     10.50802397015022800000	     -0.00000000000000468158	      0.00000000000019983673	     -5.16571693376981060000	    -10.52568068216817000000	     -0.27269118464266145000	    -66.41589053785192200000	     -2.27955668485036570000	      0.00000000000044929338	     -0.00000000000033686461	    -27.51511480892718000000	      9.39730643867295080000	     -3.61021539473987700000
      1.16200000000000010000	      0.00290303850558564080	      0.86764481559481321000	     -0.27523899967998688000	     20.34049530512468000000	     -3.65433269277561260000	      9.06149496504020390000	     -8.15432674060264340000	      9.52542015662125860000	      4.67758714832248220000	    -20.71388925258699500000	     10.51264391245684500000	     -0.00000000000000344632	      0.00000000000019870843	     -5.04959299125481120000	    -10.45547205243160200000	     -0.32203024485224718000	    -66.30309185867264400000	     -2.08052340813389810000	      0.00000000000044877140	     -0.00000000000033509892	    -27.53855117006939000000	      9.32637431836554850000	     -3.54110306067406370000
      1.16300000000000000000	      0.00450581564498755540	      0.86812013769619978000	     -0.27519626099993277000	     20.35278226183010700000	     -3.61453785875108520000	      8.99221009354979550000	     -8.36802140200514090000	      9.47854295258519210000	      4.74426355655663910000	    -20.57515744778192600000	     10.51726385476346000000	     -0.00000000000000221106	      0.00000000000019758012	     -4.93346904873983940000	    -10.38526342269504900000	     -0.37136930506182270000	    -66.19029317949339500000	     -1.88149013141747590000	      0.00000000000044824941	     -0.00000000000033333323	    -27.56198753121159600000	      9.25544219805816230000	     -3.47199072660826550000
      1.16400000000000010000	      0.00610657858363762920	      0.86859592744016745000	     -0.27515411419448310000	     20.36581598842648000000	     -3.57360049127174050000	      8.92055482242169440000	     -8.58345450884145760000	      9.42816684703769780000	      4.81076579859277590000	    -20.43310796771240200000	     10.51330762916056300000	     -0.00000000000000094410	      0.00000000000019628134	     -4.82192271089587620000	    -10.31337969010043300000	     -0.42420662545122595000	    -66.06802742050275900000	     -1.68816182588295340000	      0.00000000000044769995	     -0.00000000000033170621	    -27.58642099297813700000	      9.18276781390609640000	     -3.40205852212693260000
      1.16500000000000000000	      0.00770734152228734740	      0.86907171718413512000	     -0.27511196738903343000	     20.37884971502284900000	     -3.53266312379240510000	      8.84889955129360930000	     -8.79888761567772800000	      9.37779074149021600000	      4.87726804062889750000	    -20.29105848764290700000	     10.50935140355766800000	      0.00000000000000032285	      0.00000000000019498256	     -4.71037637305193880000	    -10.24149595750583300000	     -0.47704394584061749000	    -65.94576166151213700000	     -1.49483352034847370000	      0.00000000000044715049	     -0.00000000000033007919	    -27.61085445474467500000	      9.11009342975404830000	     -3.33212631764561530000
